<?xml version="1.0" encoding="utf-8"?>
<!-- Generator: Adobe Illustrator 22.1.0, SVG Export Plug-In . SVG Version: 6.00 Build 0)  -->
<svg version="1.1" id="Calque_1" xmlns="http://www.w3.org/2000/svg" xmlns:xlink="http://www.w3.org/1999/xlink" x="0px" y="0px"
	 viewBox="0 0 378.3 157.3" style="enable-background:new 0 0 378.3 157.3;" xml:space="preserve">
<style type="text/css">
	.st0{fill:#FDF2C6;}
	.st1{fill:#F9BB30;}
	.st2{fill:#E8F5FF;}
	.st3{fill:#5FB0E5;}
	.st4{fill:#0686D8;}
	.st5{fill:#FFFFFF;}
	.st6{fill:#D2E9F7;}
	.st7{fill:#3A4237;}
	.st8{fill:#D19620;}
	.st9{fill:#F9D22E;}
	.st10{fill:#907B1A;}
	.st11{fill:none;}
	.st12{fill:#0686D8;stroke:#0686D8;stroke-miterlimit:10;}
	.st13{fill:#0686D8;stroke:#0686D8;stroke-width:0.5;stroke-miterlimit:10;}
</style>
<g>
	<polygon class="st0" points="285.4,91.3 285.4,108.7 300.4,117.4 315.4,108.7 315.4,91.3 300.4,82.7 	"/>
	<polygon class="st0" points="270.3,118.1 270.3,135.4 285.4,144.1 300.4,135.4 300.4,118.1 285.4,109.4 	"/>
	<path class="st1" d="M300.6,83.3l12.4,7.1c1,0.6,1.7,1.7,1.7,2.9v14.3c0,1.2-0.6,2.3-1.7,2.9l-12.4,7.1c-1,0.6-2.3,0.6-3.4,0
		l-12.4-7.1c-1-0.6-1.7-1.7-1.7-2.9V93.3c0-1.2,0.6-2.3,1.7-2.9l12.4-7.1C298.3,82.6,299.6,82.6,300.6,83.3z M299.3,115.4l12.4-7.1
		c0.2-0.1,0.3-0.3,0.3-0.6V93.4c0-0.2-0.1-0.5-0.3-0.6l-12.4-7.2c-0.1-0.1-0.2-0.1-0.3-0.1s-0.2,0-0.3,0.1l-12.4,7.1
		c-0.2,0.1-0.3,0.3-0.3,0.6v14.3c0,0.2,0.1,0.5,0.3,0.6l12.4,7.1c0.1,0.1,0.2,0.1,0.3,0.1C299,115.4,299.1,115.4,299.3,115.4z"/>
	<path class="st1" d="M298.9,117.7c-0.5,0-1-0.1-1.5-0.4l-12.4-7.1c-0.9-0.5-1.5-1.5-1.5-2.6V93.3c0-1.1,0.6-2,1.5-2.6l12.4-7.2
		c0.9-0.5,2.1-0.5,3,0l12.4,7.2c0.9,0.5,1.5,1.5,1.5,2.6v14.3c0,1.1-0.6,2-1.5,2.6l-12.4,7.1C300,117.6,299.5,117.7,298.9,117.7
		 M299,85.1c-0.2,0-0.4,0-0.5,0.1L286,92.4c-0.4,0.2-0.6,0.6-0.6,1v14.3c0,0.4,0.2,0.8,0.6,0.9l12.4,7.1c0.3,0.2,0.8,0.2,1.1,0
		l12.4-7.1c0.3-0.2,0.6-0.6,0.6-0.9V93.4c0-0.4-0.2-0.8-0.6-1l-12.4-7.2C299.3,85.1,299.1,85,299,85.1 M298.9,118.5
		c0.7,0,1.3-0.2,1.9-0.5l12.4-7.1c1.2-0.7,1.9-1.9,1.9-3.3V93.3c0-1.4-0.7-2.6-1.9-3.3l-12.4-7.1c-1.2-0.7-2.6-0.7-3.8,0L284.6,90
		c-1.2,0.7-1.9,1.9-1.9,3.3v14.3c0,1.4,0.7,2.6,1.9,3.3l12.4,7.2C297.6,118.4,298.2,118.6,298.9,118.5L298.9,118.5z M298.9,85.9h0.1
		l12.4,7.1c0.1,0.1,0.1,0.1,0.1,0.2v14.3c0,0.1,0,0.2-0.1,0.2L299,115c-0.1,0.1-0.2,0.1-0.3,0l-12.4-7.1c-0.1,0-0.1-0.1-0.1-0.2
		V93.4c0-0.1,0.1-0.2,0.1-0.2l12.4-7.1h0.1L298.9,85.9z"/>
	<path class="st1" d="M315.1,108.1l12.4,7.1c1,0.6,1.7,1.7,1.7,2.9v14.3c0,1.2-0.6,2.3-1.7,2.9l-12.4,7.1c-1,0.6-2.3,0.6-3.4,0
		l-12.4-7.1c-1-0.6-1.7-1.7-1.7-2.9v-14.3c0-1.2,0.6-2.3,1.7-2.9l12.4-7.1C312.7,107.5,314,107.5,315.1,108.1z M313.7,140.2
		l12.4-7.1c0.2-0.1,0.3-0.3,0.3-0.6v-14.3c0-0.2-0.1-0.5-0.3-0.6l-12.4-7.2c-0.2-0.1-0.5-0.1-0.7,0l-12.4,7.1
		c-0.2,0.1-0.3,0.3-0.3,0.6v14.3c0,0.2,0.1,0.5,0.3,0.6l12.4,7.2c0.1,0.1,0.2,0.1,0.3,0.1C313.5,140.3,313.6,140.3,313.7,140.2z"/>
	<path class="st1" d="M313.4,142.6c-0.5,0-1-0.1-1.5-0.4l-12.4-7.1c-0.9-0.5-1.5-1.5-1.5-2.6v-14.3c0-1.1,0.6-2,1.5-2.6l12.4-7.1
		c0.4-0.3,1-0.4,1.5-0.4s1,0.1,1.5,0.4l12.4,7.1c0.9,0.5,1.5,1.5,1.5,2.6v14.3c0,1.1-0.6,2-1.5,2.6l-12.4,7.1
		C314.3,142.5,313.8,142.6,313.4,142.6 M313.3,110c-0.2,0-0.4,0-0.6,0.1l-12.4,7.1c-0.4,0.2-0.6,0.6-0.5,1v14.3c0,0.4,0.2,0.8,0.5,1
		l12.4,7.1c0.2,0.1,0.4,0.1,0.6,0.1s0.4-0.1,0.6-0.1l12.4-7.1c0.4-0.2,0.6-0.6,0.6-1v-14.3c0-0.4-0.2-0.8-0.6-1l-12.4-7.1
		C313.7,110,313.5,110,313.3,110 M313.3,143.4c0.7,0,1.3-0.2,1.9-0.5l12.4-7.1c1.2-0.7,1.9-1.9,1.9-3.3v-14.3c0-1.4-0.7-2.6-1.9-3.3
		l-12.4-7.1c-0.6-0.3-1.2-0.5-1.9-0.5c-0.7,0-1.3,0.2-1.9,0.5l-12.4,7.1c-1.2,0.7-1.9,1.9-1.9,3.3v14.3c0,1.4,0.7,2.6,1.9,3.3
		l12.4,7.1C312,143.3,312.7,143.4,313.3,143.4z M313.3,110.8h0.1l12.4,7.2c0.1,0.1,0.1,0.1,0.1,0.2v14.3c0,0.1-0.1,0.2-0.1,0.2
		l-12.4,7.1h-0.1h-0.1l-12.4-7.1c-0.1,0-0.1-0.1-0.1-0.2v-14.3c0-0.1,0.1-0.2,0.1-0.2L313.3,110.8
		C313.3,110.9,313.3,110.9,313.3,110.8L313.3,110.8z"/>
	<path class="st1" d="M286.2,108.1l12.4,7.1c1,0.6,1.7,1.7,1.7,2.9v14.3c0,1.2-0.6,2.3-1.7,2.9l-12.4,7.1c-1,0.6-2.3,0.6-3.4,0
		l-12.4-7.1c-1-0.6-1.7-1.7-1.7-2.9v-14.3c0-1.2,0.6-2.3,1.7-2.9l12.4-7.1C283.8,107.5,285.1,107.5,286.2,108.1z M284.8,140.2
		l12.4-7.1c0.2-0.1,0.3-0.3,0.3-0.6v-14.3c0-0.2-0.1-0.5-0.3-0.6l-12.4-7.1c-0.1-0.1-0.2-0.1-0.3-0.1s-0.2,0-0.3,0.1l-12.4,7.1
		c-0.2,0.1-0.3,0.3-0.3,0.6v14.3c0,0.2,0.1,0.5,0.3,0.6l12.4,7.1c0.1,0.1,0.2,0.1,0.3,0.1S284.7,140.3,284.8,140.2L284.8,140.2z"/>
	<path class="st1" d="M284.5,142.6c-0.5,0-1-0.1-1.5-0.4l-12.4-7.1c-0.9-0.5-1.5-1.5-1.5-2.6v-14.3c0-1.1,0.6-2,1.5-2.6l12.4-7.1
		c0.5-0.3,1-0.4,1.5-0.4s1,0.1,1.5,0.4l12.4,7.1c0.9,0.5,1.5,1.5,1.5,2.6v14.3c0,1.1-0.6,2-1.5,2.6l-12.4,7.1
		C285.5,142.5,285,142.6,284.5,142.6 M284.5,110c-0.2,0-0.4,0-0.6,0.1l-12.4,7.1c-0.4,0.2-0.6,0.6-0.5,1v14.3c0,0.4,0.2,0.8,0.5,1
		l12.4,7.1c0.3,0.2,0.8,0.2,1.1,0l12.4-7.1c0.4-0.2,0.6-0.6,0.6-1v-14.3c0-0.4-0.2-0.8-0.6-1l-12.4-7.1
		C284.8,110,284.6,110,284.5,110 M284.5,143.4c0.7,0,1.3-0.2,1.9-0.5l12.4-7.1c1.2-0.7,1.9-1.9,1.9-3.3v-14.3c0-1.4-0.7-2.6-1.9-3.3
		l-12.4-7.1c-0.6-0.3-1.2-0.5-1.9-0.5s-1.3,0.2-1.9,0.5l-12.4,7.1c-1.2,0.7-1.9,1.9-1.9,3.3v14.3c0,1.4,0.7,2.6,1.9,3.3l12.4,7.1
		C283.1,143.3,283.8,143.4,284.5,143.4z M284.5,110.8h0.1L297,118c0.1,0,0.1,0.1,0.1,0.2v14.3c0,0.1-0.1,0.2-0.1,0.2l-12.4,7.1h-0.1
		h-0.1l-12.4-7.1c-0.1-0.1-0.1-0.1-0.1-0.2v-14.3c0-0.1,0.1-0.2,0.1-0.2L284.5,110.8C284.4,110.8,284.5,110.8,284.5,110.8
		L284.5,110.8z"/>
</g>
<g>
	<polygon class="st0" points="114.4,69.3 114.4,86.7 129.4,95.4 144.4,86.7 144.4,69.3 129.4,60.7 	"/>
	<polygon class="st0" points="99.3,96.1 99.3,113.4 114.4,122.1 129.4,113.4 129.4,96.1 114.4,87.4 	"/>
	<path class="st1" d="M129.6,61.3l12.4,7.1c1,0.6,1.7,1.7,1.7,2.9v14.3c0,1.2-0.6,2.3-1.7,2.9l-12.4,7.1c-1,0.6-2.3,0.6-3.4,0
		l-12.4-7.1c-1-0.6-1.7-1.7-1.7-2.9V71.3c0-1.2,0.6-2.3,1.7-2.9l12.4-7.1C127.3,60.6,128.6,60.6,129.6,61.3z M128.3,93.4l12.4-7.1
		c0.2-0.1,0.3-0.3,0.3-0.6V71.4c0-0.2-0.1-0.5-0.3-0.6l-12.4-7.2c-0.1-0.1-0.2-0.1-0.3-0.1s-0.2,0-0.3,0.1l-12.4,7.1
		c-0.2,0.1-0.3,0.3-0.3,0.6v14.3c0,0.2,0.1,0.5,0.3,0.6l12.4,7.1c0.1,0.1,0.2,0.1,0.3,0.1C128,93.4,128.1,93.4,128.3,93.4z"/>
	<path class="st1" d="M127.9,95.7c-0.5,0-1-0.1-1.5-0.4L114,88.2c-0.9-0.5-1.5-1.5-1.5-2.6V71.3c0-1.1,0.6-2,1.5-2.6l12.4-7.2
		c0.9-0.5,2.1-0.5,3,0l12.4,7.2c0.9,0.5,1.5,1.5,1.5,2.6v14.3c0,1.1-0.6,2-1.5,2.6l-12.4,7.1C129,95.6,128.5,95.7,127.9,95.7
		 M128,63.1c-0.2,0-0.4,0-0.5,0.1L115,70.4c-0.4,0.2-0.6,0.6-0.6,1v14.3c0,0.4,0.2,0.8,0.6,0.9l12.4,7.1c0.3,0.2,0.8,0.2,1.1,0
		l12.4-7.1c0.3-0.2,0.6-0.6,0.6-0.9V71.4c0-0.4-0.2-0.8-0.6-1l-12.4-7.2C128.3,63.1,128.1,63,128,63.1 M127.9,96.5
		c0.7,0,1.3-0.2,1.9-0.5l12.4-7.1c1.2-0.7,1.9-1.9,1.9-3.3V71.3c0-1.4-0.7-2.6-1.9-3.3l-12.4-7.1c-1.2-0.7-2.6-0.7-3.8,0L113.6,68
		c-1.2,0.7-1.9,1.9-1.9,3.3v14.3c0,1.4,0.7,2.6,1.9,3.3l12.4,7.2C126.6,96.4,127.2,96.6,127.9,96.5L127.9,96.5z M127.9,63.9
		L127.9,63.9l12.5,7.1c0.1,0.1,0.1,0.1,0.1,0.2v14.3c0,0.1,0,0.2-0.1,0.2L128,93c-0.1,0.1-0.2,0.1-0.3,0l-12.4-7.1
		c-0.1,0-0.1-0.1-0.1-0.2V71.4c0-0.1,0.1-0.2,0.1-0.2l12.4-7.1h0.1L127.9,63.9z"/>
	<path class="st1" d="M144.1,86.1l12.4,7.1c1,0.6,1.7,1.7,1.7,2.9v14.3c0,1.2-0.6,2.3-1.7,2.9l-12.4,7.1c-1,0.6-2.3,0.6-3.4,0
		l-12.4-7.1c-1-0.6-1.7-1.7-1.7-2.9V96.1c0-1.2,0.6-2.3,1.7-2.9l12.4-7.1C141.7,85.5,143,85.5,144.1,86.1z M142.7,118.2l12.4-7.1
		c0.2-0.1,0.3-0.3,0.3-0.6V96.2c0-0.2-0.1-0.5-0.3-0.6l-12.4-7.2c-0.2-0.1-0.5-0.1-0.7,0l-12.4,7.1c-0.2,0.1-0.3,0.3-0.3,0.6v14.3
		c0,0.2,0.1,0.5,0.3,0.6l12.4,7.2c0.1,0.1,0.2,0.1,0.3,0.1C142.5,118.3,142.6,118.3,142.7,118.2z"/>
	<path class="st1" d="M142.4,120.6c-0.5,0-1-0.1-1.5-0.4l-12.4-7.1c-0.9-0.5-1.5-1.5-1.5-2.6V96.2c0-1.1,0.6-2,1.5-2.6l12.4-7.1
		c0.4-0.3,1-0.4,1.5-0.4s1,0.1,1.5,0.4l12.4,7.1c0.9,0.5,1.5,1.5,1.5,2.6v14.3c0,1.1-0.6,2-1.5,2.6l-12.4,7.1
		C143.3,120.5,142.8,120.6,142.4,120.6 M142.3,88c-0.2,0-0.4,0-0.6,0.1l-12.4,7.1c-0.4,0.2-0.6,0.6-0.5,1v14.3c0,0.4,0.2,0.8,0.5,1
		l12.4,7.1c0.2,0.1,0.4,0.1,0.6,0.1s0.4-0.1,0.6-0.1l12.4-7.1c0.4-0.2,0.6-0.6,0.6-1V96.2c0-0.4-0.2-0.8-0.6-1l-12.4-7.1
		C142.7,88,142.5,88,142.3,88 M142.3,121.4c0.7,0,1.3-0.2,1.9-0.5l12.4-7.1c1.2-0.7,1.9-1.9,1.9-3.3V96.2c0-1.4-0.7-2.6-1.9-3.3
		l-12.4-7.1c-0.6-0.3-1.2-0.5-1.9-0.5s-1.3,0.2-1.9,0.5L128,92.9c-1.2,0.7-1.9,1.9-1.9,3.3v14.3c0,1.4,0.7,2.6,1.9,3.3l12.4,7.1
		C141,121.3,141.7,121.4,142.3,121.4z M142.3,88.8L142.3,88.8l12.5,7.2c0.1,0.1,0.1,0.1,0.1,0.2v14.3c0,0.1-0.1,0.2-0.1,0.2
		l-12.4,7.1h-0.1h-0.1l-12.4-7.1c-0.1,0-0.1-0.1-0.1-0.2V96.2c0-0.1,0.1-0.2,0.1-0.2L142.3,88.8C142.3,88.9,142.3,88.9,142.3,88.8
		L142.3,88.8z"/>
	<path class="st1" d="M115.2,86.1l12.4,7.1c1,0.6,1.7,1.7,1.7,2.9v14.3c0,1.2-0.6,2.3-1.7,2.9l-12.4,7.1c-1,0.6-2.3,0.6-3.4,0
		l-12.4-7.1c-1-0.6-1.7-1.7-1.7-2.9V96.1c0-1.2,0.6-2.3,1.7-2.9l12.4-7.1C112.8,85.5,114.1,85.5,115.2,86.1z M113.8,118.2l12.4-7.1
		c0.2-0.1,0.3-0.3,0.3-0.6V96.2c0-0.2-0.1-0.5-0.3-0.6l-12.4-7.1c-0.1-0.1-0.2-0.1-0.3-0.1s-0.2,0-0.3,0.1l-12.4,7.1
		c-0.2,0.1-0.3,0.3-0.3,0.6v14.3c0,0.2,0.1,0.5,0.3,0.6l12.4,7.1c0.1,0.1,0.2,0.1,0.3,0.1C113.6,118.3,113.7,118.3,113.8,118.2
		L113.8,118.2z"/>
	<path class="st1" d="M113.5,120.6c-0.5,0-1-0.1-1.5-0.4l-12.4-7.1c-0.9-0.5-1.5-1.5-1.5-2.6V96.2c0-1.1,0.6-2,1.5-2.6l12.4-7.1
		c0.5-0.3,1-0.4,1.5-0.4s1,0.1,1.5,0.4l12.4,7.1c0.9,0.5,1.5,1.5,1.5,2.6v14.3c0,1.1-0.6,2-1.5,2.6l-12.4,7.1
		C114.5,120.5,114,120.6,113.5,120.6 M113.5,88c-0.2,0-0.4,0-0.6,0.1l-12.4,7.1c-0.4,0.2-0.6,0.6-0.5,1v14.3c0,0.4,0.2,0.8,0.5,1
		l12.4,7.1c0.3,0.2,0.8,0.2,1.1,0l12.4-7.1c0.4-0.2,0.6-0.6,0.6-1V96.2c0-0.4-0.2-0.8-0.6-1L114,88.1C113.8,88,113.6,88,113.5,88
		 M113.5,121.4c0.7,0,1.3-0.2,1.9-0.5l12.4-7.1c1.2-0.7,1.9-1.9,1.9-3.3V96.2c0-1.4-0.7-2.6-1.9-3.3l-12.4-7.1
		c-0.6-0.3-1.2-0.5-1.9-0.5c-0.7,0-1.3,0.2-1.9,0.5l-12.4,7.1c-1.2,0.7-1.9,1.9-1.9,3.3v14.3c0,1.4,0.7,2.6,1.9,3.3l12.4,7.1
		C112.1,121.3,112.8,121.4,113.5,121.4z M113.5,88.8L113.5,88.8L126,96c0.1,0,0.1,0.1,0.1,0.2v14.3c0,0.1-0.1,0.2-0.1,0.2l-12.4,7.1
		h-0.1h-0.1l-12.4-7.1c-0.1-0.1-0.1-0.1-0.1-0.2V96.2c0-0.1,0.1-0.2,0.1-0.2L113.5,88.8C113.4,88.8,113.5,88.8,113.5,88.8
		L113.5,88.8z"/>
</g>
<g>
	<polygon class="st0" points="21.6,75.9 21.6,93.3 36.6,102 51.7,93.3 51.7,75.9 36.6,67.3 	"/>
	<path class="st1" d="M37.9,67.1l12.4,7.2c1.1,0.6,1.7,1.7,1.7,2.9v14.3c0,1.2-0.6,2.3-1.7,2.9l-12.4,7.1c-1,0.6-2.3,0.6-3.4,0
		l-12.4-7.2c-1-0.6-1.7-1.7-1.7-2.9V77.2c0-1.2,0.6-2.3,1.7-2.9l12.4-7.2c0.5-0.3,1.1-0.4,1.7-0.4C36.8,66.7,37.4,66.8,37.9,67.1z
		 M36.5,99.2L48.9,92c0.2-0.1,0.3-0.3,0.3-0.6V77.2c0-0.2-0.1-0.5-0.3-0.6l-12.4-7.2c-0.1-0.1-0.2-0.1-0.3-0.1s-0.2,0-0.3,0.1
		l-12.4,7.1c-0.2,0.1-0.3,0.3-0.3,0.6v14.3c0,0.2,0.1,0.5,0.3,0.6l12.4,7.2c0.1,0.1,0.2,0.1,0.3,0.1S36.4,99.3,36.5,99.2z"/>
	<path class="st1" d="M36.2,101.5c-0.5,0-1-0.1-1.5-0.3L22.3,94c-0.9-0.5-1.5-1.5-1.5-2.6V77.2c0-1.1,0.6-2,1.5-2.6l12.4-7.2
		c0.9-0.5,2-0.5,2.9,0L50,74.6c0.9,0.5,1.5,1.5,1.5,2.6v14.3c0,1-0.6,2-1.5,2.5l-12.4,7.2C37.2,101.5,36.7,101.6,36.2,101.5
		 M36.2,69c-0.2,0-0.4,0-0.6,0.1l-12.3,7.1c-0.4,0.2-0.6,0.6-0.5,1v14.3c0,0.4,0.2,0.8,0.5,1l12.4,7.1c0.3,0.2,0.8,0.2,1.1,0
		l12.4-7.1c0.4-0.2,0.6-0.6,0.6-1V77.2c0-0.4-0.2-0.8-0.6-1l-12.4-7.1C36.6,69,36.4,68.9,36.2,69 M36.2,102.4c0.7,0,1.3-0.2,1.9-0.5
		l12.4-7.2c1.2-0.7,1.9-1.9,1.9-3.3V77.2c0-1.4-0.7-2.6-1.9-3.3l-12.4-7.2c-0.6-0.3-1.2-0.5-1.9-0.5s-1.3,0.2-1.9,0.5l-12.4,7.2
		c-1.2,0.7-1.9,2-1.9,3.3v14.3c0,1.4,0.7,2.6,1.9,3.3l12.4,7.1C34.9,102.3,35.5,102.4,36.2,102.4L36.2,102.4z M36.2,69.8L36.2,69.8
		l12.5,7.1c0.1,0,0.1,0.1,0.1,0.2v14.3c0,0.1,0,0.2-0.1,0.2l-12.4,7.2h-0.1h-0.1l-12.4-7.1c-0.1,0-0.1-0.1-0.1-0.2V77.2
		c0-0.1,0-0.2,0.1-0.2L36,69.8C36.1,69.8,36.1,69.8,36.2,69.8L36.2,69.8z"/>
</g>
<ellipse class="st2" cx="160.3" cy="153.1" rx="160.3" ry="4.2"/>
<g id="_Groupe_">
	<g id="_Groupe_2">
		<circle class="st3" cx="349.9" cy="120.2" r="1.3"/>
	</g>
	<g id="_Groupe_3">
		<circle class="st3" cx="376.1" cy="118.9" r="2.2"/>
	</g>
	<g id="_Groupe_4">
		<path class="st3" d="M357.3,136.4c0,1.9-1.5,3.4-3.4,3.4s-3.4-1.5-3.4-3.4s1.5-3.4,3.4-3.4c0,0,0,0,0.1,0
			C355.8,133,357.3,134.5,357.3,136.4z"/>
	</g>
</g>
<g id="_Groupe_9">
	<path class="st3" d="M34.2,18.1c0,0.9-0.7,1.6-1.6,1.6c-0.9,0-1.6-0.7-1.6-1.6s0.7-1.6,1.6-1.6l0,0C33.5,16.5,34.2,17.2,34.2,18.1z
		"/>
</g>
<g id="_Groupe_10">
	<path class="st3" d="M7.2,26c0,1.1-0.9,2.1-2,2.1s-2.1-0.9-2.1-2S4,24,5.1,24c0,0,0,0,0.1,0C6.2,24,7.2,24.9,7.2,26z"/>
</g>
<g id="_Groupe_11">
	<path class="st3" d="M23.5,29.8c0,1.1-0.9,2.1-2.1,2.1s-2.1-0.9-2.1-2.1c0-1.1,0.9-2.1,2.1-2.1S23.5,28.6,23.5,29.8L23.5,29.8z"/>
</g>
<g id="_Groupe_12">
	<path class="st3" d="M20.1,9.7c0,1.9-1.5,3.4-3.4,3.4s-3.4-1.5-3.4-3.4s1.5-3.4,3.4-3.4l0,0C18.6,6.3,20.1,7.8,20.1,9.7L20.1,9.7z"
		/>
</g>
<g id="_Groupe_14">
	<path class="st3" d="M132.9,34.5h150.8c0.6,0,1,0.4,1,1v107.8c0,0.6-0.4,1-1,1H132.9c-0.6,0-1-0.4-1-1V35.5
		C131.9,34.9,132.3,34.5,132.9,34.5z"/>
</g>
<g id="_Groupe_16">
	<path id="_Tracé_2" class="st4" d="M280.8,147.1H135.7c-3.7,0-6.7-3-6.7-6.6l0,0V38.3c0-3.7,3-6.6,6.6-6.6h108.6v5.7H135.7
		c-0.6,0-1,0.4-1,1v102.2c0,0.5,0.5,1,1,0.9h145.2c0.5,0,0.9-0.4,0.9-0.9V38.3c0-0.5-0.4-1-0.9-1H266v-5.6h14.8c3.7,0,6.6,3,6.6,6.6
		v102.2C287.5,144.1,284.5,147.1,280.8,147.1z"/>
</g>
<g id="_Groupe_17">
	<rect x="139.3" y="43.1" class="st5" width="137.1" height="89.1"/>
</g>
<g id="_Groupe_18">
	<path class="st6" d="M282,150.4H132.9c-3.6,0-6.6-2.6-7.2-6.1l-1.1-6.5h69.1l2.6,3.8h19.1l2.9-3.8h72.8l-0.9,5.6
		C289.5,147.4,286.1,150.3,282,150.4z"/>
</g>
<g id="_Groupe_19">
	<path id="_Tracé_transparent_" class="st4" d="M282,153.2H132.9c-5,0-9.2-3.6-10-8.5l-1.6-9.8h73.9l2.6,3.8H214l2.9-3.8h77.6
		l-1.5,9C292.1,149.3,287.4,153.2,282,153.2z M128,140.6l0.5,3.2c0.4,2.2,2.2,3.7,4.4,3.7H282c2.7,0,5-1.9,5.4-4.6l0.4-2.3h-68
		l-2.9,3.8h-22l-2.6-3.8L128,140.6L128,140.6z"/>
</g>
<rect x="144.2" y="48.9" class="st6" width="127.3" height="8.4"/>
<rect x="144.2" y="117.7" class="st6" width="127.3" height="11"/>
<rect x="144.2" y="60.2" class="st6" width="126.8" height="54.5"/>
<g id="_Groupe_5">
	<g id="_Groupe_6">
		<circle class="st3" cx="348.3" cy="14.9" r="0.9"/>
	</g>
	<g id="_Groupe_7">
		<circle class="st3" cx="333.2" cy="24.7" r="1.5"/>
	</g>
	<g id="_Groupe_8">
		<path class="st3" d="M338.3,7.8c-0.6-1.1-0.3-2.5,0.8-3.2s2.5-0.3,3.2,0.8s0.3,2.5-0.8,3.2l0,0C340.4,9.3,339,9,338.3,7.8
			L338.3,7.8z"/>
	</g>
</g>
<path class="st7" d="M353.9,78.2L353.9,78.2c0.2-0.7,0.3-1.4,0.3-2h1.5c0,0.8-0.1,1.6-0.4,2.3v0.1L353.9,78.2z M352.4,81.4
	c0.4-0.6,0.7-1.2,1-1.8l1.4,0.6c-0.3,0.7-0.7,1.4-1.1,2.1L352.4,81.4z M350.1,84.1c0.5-0.5,1-1,1.4-1.6l1.2,0.9
	c-0.5,0.6-1,1.2-1.5,1.7L350.1,84.1z M348.3,87.7l-0.9-1.2c0.6-0.4,1.2-0.9,1.7-1.3l1,1.1C349.5,86.7,348.9,87.2,348.3,87.7
	L348.3,87.7z M344.3,88.3c0.6-0.3,1.3-0.7,1.9-1l0.8,1.3c-0.6,0.4-1.3,0.8-2,1.1L344.3,88.3z M340.9,89.7c0.7-0.2,1.3-0.5,2-0.8
	l0.6,1.4c-0.7,0.3-1.4,0.6-2.2,0.8L340.9,89.7z M337.4,90.5c0.7-0.1,1.4-0.2,2.1-0.4l0.4,1.4c-0.8,0.2-1.5,0.3-2.3,0.4L337.4,90.5z
	 M333.8,90.6c0.7,0,1.4,0,2.2,0l0.1,1.5c-0.8,0-1.5,0-2.3,0L333.8,90.6z M330.2,90.1c0.7,0.2,1.4,0.3,2.1,0.4l-0.2,1.5
	c-0.8-0.1-1.5-0.2-2.3-0.4L330.2,90.1z M326.2,90.3l0.6-1.4c0.6,0.3,1.3,0.6,2,0.8l-0.5,1.4C327.7,90.9,326.9,90.6,326.2,90.3
	L326.2,90.3z M323.8,87.1c0.6,0.4,1.2,0.8,1.8,1.2l-0.7,1.3c-0.7-0.4-1.3-0.8-2-1.3L323.8,87.1z M321.1,84.8l0.1,0.2
	c0.5,0.5,1,0.9,1.5,1.3l-1,1.2c-0.5-0.4-1-0.9-1.5-1.4l-0.2-0.2L321.1,84.8z M318.7,82c0.4,0.6,0.9,1.2,1.4,1.7l-1.1,1
	c-0.5-0.6-1-1.2-1.5-1.8L318.7,82z M316.9,79c0.3,0.6,0.6,1.3,1,1.9l-1.3,0.8c-0.4-0.6-0.8-1.3-1.1-2L316.9,79z M315.7,75.6
	c0.2,0.7,0.4,1.3,0.6,2l-1.4,0.5c-0.3-0.7-0.5-1.5-0.7-2.2L315.7,75.6z M315.3,72.1c0,0.7,0.1,1.4,0.1,2.1l-1.5,0.2
	c-0.1-0.8-0.2-1.6-0.2-2.3C313.7,72.1,315.3,72.1,315.3,72.1z M315.7,68.5c-0.2,0.7-0.3,1.4-0.3,2.1l-1.5-0.1
	c0.1-0.8,0.2-1.5,0.4-2.3L315.7,68.5z M316.8,65.1c-0.3,0.7-0.5,1.3-0.8,2l-1.4-0.4c0.2-0.7,0.5-1.5,0.8-2.2L316.8,65.1z M318.6,62
	c-0.4,0.6-0.8,1.2-1.1,1.8l-1.3-0.7c0.4-0.7,0.8-1.4,1.2-2L318.6,62z M320.9,59.3c-0.5,0.5-1,1-1.5,1.6l-1.2-1
	c0.5-0.6,1-1.2,1.6-1.7L320.9,59.3z M322.9,55.8l0.8,1.3c-0.6,0.4-1.2,0.8-1.7,1.2l-0.9-1.2C321.7,56.7,322.3,56.2,322.9,55.8
	L322.9,55.8z M326.9,55.8c-0.7,0.2-1.4,0.4-2,0.7l-0.6-1.4c0.7-0.3,1.5-0.6,2.3-0.8L326.9,55.8z M330.2,55.8L330.2,55.8
	c-0.7-0.2-1.3-0.2-2-0.2l-0.1-1.5c0.8,0,1.6,0,2.4,0.2h0.1L330.2,55.8z M332.8,57.6L332.8,57.6c-0.4-0.6-0.9-1-1.4-1.3l0.8-1.3
	c0.7,0.4,1.3,1,1.8,1.6l0.1,0.1L332.8,57.6z M333.5,60.6c0.1-0.7,0-1.3-0.2-1.9l1.4-0.4c0.2,0.8,0.3,1.7,0.2,2.5L333.5,60.6z
	 M332.5,63.9c0.3-0.6,0.5-1.2,0.7-1.8V62l1.5,0.4v0.1c-0.2,0.7-0.5,1.4-0.8,2.1L332.5,63.9z M330.5,66.7c0.5-0.5,0.9-1,1.4-1.6
	l1.2,0.8c-0.5,0.6-1,1.3-1.5,1.8L330.5,66.7z M327.7,68.9c0.6-0.4,1.2-0.8,1.7-1.2l1,1.2c-0.6,0.5-1.3,0.9-1.9,1.3L327.7,68.9z
	 M324.4,70.3c0.7-0.2,1.4-0.5,2-0.8l0.6,1.3c-0.7,0.3-1.4,0.6-2.2,0.8L324.4,70.3z M320.9,71c0.7-0.1,1.4-0.2,2.1-0.3l0.3,1.5
	c-0.8,0.2-1.5,0.3-2.3,0.3L320.9,71z M317.3,71c0.8,0.1,1.5,0.1,2.2,0.1v1.5c-0.8,0-1.5,0-2.3-0.1L317.3,71z M313.8,70.4l0.2,0.1
	c0.6,0.2,1.2,0.3,1.9,0.4l-0.2,1.5c-0.7-0.1-1.3-0.3-2-0.4l-0.3-0.1L313.8,70.4z M310.5,69c0.6,0.3,1.3,0.7,1.9,0.9l-0.6,1.4
	c-0.7-0.3-1.4-0.6-2.1-1L310.5,69z M307.6,66.9c0.5,0.5,1.1,0.9,1.7,1.3l-0.8,1.2c-0.6-0.4-1.3-0.9-1.9-1.4L307.6,66.9z M305.1,64.3
	c0.4,0.6,0.9,1.1,1.4,1.6l-1,1.1c-0.6-0.6-1.1-1.1-1.6-1.7L305.1,64.3z M303,61.3c0.4,0.6,0.8,1.2,1.2,1.8L303,64
	c-0.5-0.6-0.9-1.3-1.3-1.9L303,61.3z M301.4,58.1c0.3,0.6,0.6,1.3,0.9,2l-1.3,0.7c-0.4-0.7-0.7-1.4-1-2.1L301.4,58.1z M300.1,54.7
	L300.1,54.7L300.1,54.7c0,0.2,0.1,0.3,0.1,0.5c0.1,0.4,0.3,0.9,0.5,1.5l-1.4,0.5c-0.3-0.7-0.5-1.5-0.7-2.2L300.1,54.7z"/>
<g>
	<path class="st1" d="M295.3,50.2c0,0-14.6,0.9-22.7-7s-9.8-21.3,0.3-27.6s22,4.9,25.6,10.3C301.7,31,301.3,40.5,295.3,50.2z"/>
	<path class="st5" d="M269.6,33.4c0,0,1.6,10.6,16.9,15.2l0.2-0.3l-1.4,1.9L273,45.4l-6.5-12.5L269.6,33.4z"/>
	<path class="st8" d="M296.9,41.9c0,0,3.6-7.4,0.7-11.8c-2.3-3.6-1.6,0.9-1.6,0.9s2,6.5,0.3,10.4"/>
	<path class="st5" d="M263.2,28c0,0-13.7,1.4-12.8,10s16.2,9.2,21.1,6.6"/>
	<path class="st7" d="M272.2,45.9c-3.8,2.1-12.5,2.3-18-0.5c-3.2-1.7-5-4.1-5.3-7.2c-1-10,13.5-11.6,14.1-11.7l0.3,3
		c-0.1,0-12.2,1.4-11.4,8.4c0.2,2,1.5,3.6,3.7,4.8c4.8,2.5,12.4,2.1,15.1,0.6L272.2,45.9z"/>
	<path class="st5" d="M285.4,50.2c0,0-5.9,11.3-12.4,8.2c-6.2-3-1.4-13-1.4-13"/>
	<path class="st7" d="M283.8,55.2c-2.6,3.2-6.8,6.7-11.5,4.5c-7.5-3.7-2.4-14.5-2.2-15l2.7,1.3c0,0.1-4.1,8.6,0.7,11
		c5,2.5,10.3-7.4,10.4-7.5l2.7,1.4C285.9,52.4,284.9,53.8,283.8,55.2z"/>
	<path class="st5" d="M285.9,13.6c0,0,6.3-12.2,14-8.2s2.6,18.5-1.6,22"/>
	<path class="st7" d="M300.6,27.1c-0.4,0.5-0.9,1-1.3,1.4l-1.9-2.4c2.4-2,5.6-8.8,5-14.2c-0.3-2.5-1.3-4.3-3.1-5.2
		c-2.5-1.3-5.3-0.6-8.1,2.3c-1.5,1.6-2.8,3.3-3.9,5.2l-2.7-1.4c1.2-2.2,2.7-4.2,4.4-6c4.9-4.9,9-4.3,11.7-2.9s4.4,4,4.7,7.6
		C305.9,16.9,303.4,23.6,300.6,27.1z"/>
	<path class="st5" d="M298.3,42.3c0,0,12.7-1.3,12.1-8.5c-0.5-6.9-11.5-6.1-11.5-6.1"/>
	<path class="st7" d="M310.4,38.6c-3.5,4.3-11.5,5.2-12,5.2l-0.3-3c0.1,0,11.2-1.4,10.8-6.9c-0.4-5.3-9.8-4.7-9.9-4.7l-0.2-3
		c0.5,0,12.5-0.8,13.2,7.5C312.2,35.5,311.6,37.2,310.4,38.6z"/>
	<path class="st7" d="M283.5,15c0.4,0.9,0,1.9-0.9,2.3s-1.9,0-2.3-0.9l0,0l0,0c-0.1-0.1-0.1-0.2-0.2-0.3c-0.9,1.3-0.5,3.1,0.8,4
		s3.1,0.5,4-0.8c0.6-1,0.6-2.2,0-3.1C284.6,15.6,284.1,15.2,283.5,15z"/>
	<path class="st7" d="M270.3,23.9c0.4,0.9,0,1.9-0.9,2.3s-1.9,0-2.3-0.9l0,0c-0.1-0.1-0.1-0.2-0.2-0.3c-0.9,1.3-0.5,3.1,0.9,4
		c1.3,0.9,3.1,0.5,4-0.9c0.9-1.3,0.5-3.1-0.9-4C270.7,24,270.5,23.9,270.3,23.9z"/>
	<path class="st7" d="M273.5,14.2c-0.6-0.8-1-1.7-1.4-2.7c-0.8-2.4-0.6-5,0.5-7.3c0.8-1.3,2-2.5,1.2-3.6c-0.4-0.6-1.1-0.7-1.7-0.3
		L272,0.4c-0.5,0.3-2.1,2.3-2.5,6.6c-0.1,2.9,0.8,5.6,2.5,7.9C272.5,14.4,273,14.2,273.5,14.2z"/>
	<path class="st7" d="M270,16.7L270,16.7c0.1-0.3,0.3-0.5,0.4-0.7c0.2-0.2,0.4-0.4,0.6-0.5c-1.5-2.4-3.8-4.2-6.4-5.2
		c-4.2-1.3-6.6-0.5-7.1-0.3c-0.6,0.3-0.8,1-0.5,1.6l0,0c0,0,0,0.1,0.1,0.1c0.7,1.2,2.4,0.5,3.8,0.3c2.6-0.2,5.1,0.7,7,2.3
		C268.7,15,269.4,15.8,270,16.7z"/>
	<path class="st8" d="M281.3,23.8c0,0,4,2.3,8.6-2.2c0,0,7.2,6.8,5.9,10.2c0,0,6.6-6.3-6.2-13.3C289.6,18.4,288.4,22.3,281.3,23.8z"
		/>
	<path class="st7" d="M295.7,52.3h-0.8c-0.6,0-15.3,0.9-23.8-7.4c-5-4.9-7.7-11.8-7-18c0.5-5,3.3-9.4,7.6-11.9
		c4.4-2.7,10-2.9,15.8-0.5c6,2.5,11.2,7.6,12.1,11.8c1.6,7.5,2.4,15.8-3.4,25.3L295.7,52.3z M269.8,20.5c-1.6,1.9-2.5,4.3-2.7,6.7
		c-0.6,5.3,1.8,11.2,6.1,15.5c6.5,6.3,17.7,6.6,20.8,6.6c4.7-8.3,4-15.6,2.6-22.4c-0.6-2.8-4.7-7.3-10.3-9.6
		c-2.8-1.2-8.2-2.7-13,0.3C271.9,18.4,270.7,19.4,269.8,20.5z"/>
	<circle class="st5" cx="268.1" cy="25.4" r="6.7"/>
	<path class="st7" d="M274.5,30.6c-2.9,3.5-8,4-11.5,1.2c-3.5-2.9-4-8-1.2-11.5s8-4,11.5-1.2c3.2,2.6,4,7.3,1.7,10.8
		C274.9,30.1,274.7,30.3,274.5,30.6z M264.1,22.1c-0.1,0.1-0.2,0.3-0.4,0.5c-1.6,2.4-0.9,5.7,1.6,7.2c2.4,1.6,5.7,0.9,7.2-1.6
		c1.6-2.4,0.9-5.6-1.6-7.2l0,0C268.7,19.6,265.8,20,264.1,22.1L264.1,22.1z"/>
	<path class="st7" d="M277.7,31.9c1,0.2,2.1,0.3,3.2,0.2c0.9-0.1,1.8-0.5,2.5-1.1s1.4-1.4,1.8-2.2c0.5-1,0.9-2,1.2-3
		c0.4,1.1,0.5,2.4,0.2,3.5c-0.3,1.2-1,2.3-2,3.1c-0.5,0.4-1.1,0.7-1.7,0.9s-1.3,0.2-1.9,0.2C279.6,33.4,278.5,32.8,277.7,31.9z"/>
	<path class="st7" d="M283.8,35.5c0.2-0.3,0.4-0.6,0.7-0.9c0.2-0.3,0.5-0.5,0.8-0.7s0.6-0.4,0.9-0.6c0.3-0.2,0.6-0.3,1-0.4
		c-0.2,0.3-0.4,0.6-0.7,0.9c-0.2,0.2-0.5,0.5-0.8,0.7s-0.6,0.4-0.9,0.6C284.5,35.3,284.1,35.4,283.8,35.5z"/>
	<path class="st7" d="M270.1,24.1c0.4,0.8,0,1.7-0.8,2.1l0,0c-0.8,0.4-1.7,0-2.1-0.8c-0.1-0.1-0.1-0.2-0.1-0.3
		c-0.7,1.2-0.4,2.8,0.8,3.5c1.2,0.7,2.8,0.4,3.5-0.8c0.5-0.8,0.5-1.9,0-2.8C271.1,24.7,270.6,24.3,270.1,24.1z"/>
	<circle class="st5" cx="282.3" cy="15.6" r="6.7"/>
	<path class="st7" d="M288.7,20.8c-2.7,3.3-7.3,4-10.9,1.7c-3.8-2.5-4.9-7.6-2.5-11.4c2.5-3.8,7.6-4.9,11.4-2.5
		c3.8,2.5,4.9,7.6,2.5,11.4C289,20.4,288.8,20.6,288.7,20.8z M278.2,12.3c-0.1,0.2-0.2,0.3-0.3,0.5c-1.6,2.4-0.9,5.7,1.6,7.2
		c2.4,1.6,5.7,0.9,7.2-1.6c1.6-2.4,0.9-5.6-1.5-7.2l0,0C282.9,9.8,279.9,10.3,278.2,12.3L278.2,12.3z"/>
	<path class="st7" d="M283.3,14.4c0.4,0.8,0,1.7-0.8,2.1l0,0c-0.8,0.4-1.7,0-2.1-0.8c-0.1-0.1-0.1-0.2-0.1-0.3
		c-0.8,1.2-0.4,2.8,0.8,3.6s2.8,0.4,3.6-0.8c0.8-1.2,0.4-2.8-0.8-3.6C283.7,14.6,283.5,14.5,283.3,14.4z"/>
	<path class="st7" d="M298.1,29.7c-2.2,2.7-6.2,7.2-10.4,10.2c-6.4,4.4-15.1,5.4-15.5,5.4l-0.3-3c0.1,0,8.3-0.9,14-4.9
		c5.8-4.1,11.4-11.7,11.5-11.8l2.4,1.8C299.8,27.5,299.2,28.4,298.1,29.7z"/>
	<path class="st9" d="M298.8,40c-1.8,2.2-3.8,4.3-6.1,6c-2.3,1.6-4.9,2.9-7.6,3.7"/>
	<path class="st7" d="M299.6,41.4c-1.8,2.2-3.8,4.2-6.1,5.9c-2.5,1.8-5.2,3.1-8.1,3.9l-0.8-2.9c2.5-0.8,4.9-1.9,7.1-3.4
		c2.1-1.7,4.1-3.6,5.8-5.8l2.4,1.8L299.6,41.4z"/>
	<path class="st10" d="M296,41.7"/>
	<path class="st10" d="M297.9,41.2"/>
</g>
<g>
	<path class="st5" d="M46.3,82.4h14c2.3,0,4.1,1.8,4.1,4.1v61.7c0,2.3-1.8,4.1-4.1,4.1h-14c-2.3,0-4.1-1.8-4.1-4.1V86.5
		C42.2,84.2,44.1,82.4,46.3,82.4z"/>
	<path class="st6" d="M52.5,82.4h23.1c2.3,0,4.1,1.8,4.1,4.1v61.7c0,2.3-1.8,4.1-4.1,4.1H52.5c-2.3,0-4.1-1.8-4.1-4.1V86.5
		C48.4,84.2,50.2,82.4,52.5,82.4z"/>
	<polygon class="st11" points="55.6,95.6 79.6,95.6 79.6,90.8 43.4,90.8 43.4,136.6 79.6,136.6 79.6,129.1 55.6,129.1 	"/>
	<path class="st11" d="M79.6,86.5c0-1.6-1.3-2.9-2.9-2.9H46.3c-1.6,0-2.9,1.3-2.9,2.9v1.9h36.2L79.6,86.5L79.6,86.5z M61.5,87.2
		h-4.8c-0.7,0-1.2-0.5-1.2-1.2c0-0.7,0.5-1.2,1.2-1.2h4.8c0.7,0,1.2,0.5,1.2,1.2C62.7,86.7,62.2,87.2,61.5,87.2z M66.3,87.2h-1.2
		c-0.7,0-1.2-0.5-1.2-1.2c0-0.7,0.5-1.2,1.2-1.2h1.2c0.7,0,1.2,0.5,1.2,1.2C67.5,86.7,67,87.2,66.3,87.2z"/>
	<path class="st11" d="M43.4,148.2c0,1.6,1.3,2.9,2.9,2.9h30.4c1.6,0,2.9-1.3,2.9-2.9V139H43.4V148.2z M60.3,140.2
		c2.7,0,4.8,2.2,4.8,4.8c0,2.7-2.2,4.8-4.8,4.8c-2.7,0-4.8-2.2-4.8-4.8S57.7,140.2,60.3,140.2z"/>
	<path class="st11" d="M60.3,147.5c1.3,0,2.4-1,2.4-2.4c0-1.3-1-2.4-2.4-2.4c-1.3,0-2.4,1-2.4,2.4C57.8,146.3,59,147.5,60.3,147.5z"
		/>
	<path class="st4" d="M60.3,149.8c2.7,0,4.8-2.2,4.8-4.8c0-2.7-2.2-4.8-4.8-4.8c-2.7,0-4.8,2.2-4.8,4.8
		C55.5,147.7,57.7,149.8,60.3,149.8z M60.3,142.7c1.3,0,2.4,1,2.4,2.4c0,1.3-1,2.4-2.4,2.4c-1.4,0-2.4-1-2.4-2.4
		C57.8,143.7,59,142.7,60.3,142.7z"/>
	<rect x="43.4" y="135.7" class="st12" width="36.2" height="2.4"/>
	<rect x="43.4" y="88.4" class="st12" width="36.2" height="2.4"/>
	<path class="st4" d="M61.5,84.7h-4.8c-0.7,0-1.2,0.5-1.2,1.2c0,0.7,0.5,1.2,1.2,1.2h4.8c0.7,0,1.2-0.5,1.2-1.2
		C62.7,85.3,62.2,84.7,61.5,84.7z"/>
	<path class="st4" d="M66.3,84.7h-1.2c-0.7,0-1.2,0.5-1.2,1.2c0,0.7,0.5,1.2,1.2,1.2h1.2c0.7,0,1.2-0.5,1.2-1.2
		C67.5,85.3,67,84.7,66.3,84.7z"/>
	<path class="st4" d="M80.8,139c0.7,0,1.2-0.5,1.2-1.2c0-0.7-0.5-1.2-1.2-1.2h-1.2v2.4L80.8,139L80.8,139z"/>
	<path class="st4" d="M42.2,136.6c-0.7,0-1.2,0.5-1.2,1.2c0,0.7,0.5,1.2,1.2,1.2h1.2v-2.4H42.2L42.2,136.6z"/>
	<path class="st4" d="M42.2,88.4c-0.7,0-1.2,0.5-1.2,1.2c0,0.7,0.5,1.2,1.2,1.2h1.2v-2.4H42.2z"/>
	<rect x="79.6" y="95.6" class="st4" width="2.4" height="0.1"/>
	<path class="st12" d="M82,92.5v-3v-3.1c0-3-2.4-5.3-5.3-5.3H46.3c-3,0-5.3,2.4-5.3,5.3v61.7c0,3,2.4,5.3,5.3,5.3h30.4
		c3,0,5.3-2.4,5.3-5.3v-19v-6l0,0L82,92.5L82,92.5z M80.8,139h-1.2v9.2c0,1.6-1.3,2.9-2.9,2.9H46.3c-1.6,0-2.9-1.3-2.9-2.9V139h-1.2
		c-0.7,0-1.2-0.5-1.2-1.2s0.5-1.2,1.2-1.2h1.2V90.8h-1.2c-0.7,0-1.2-0.5-1.2-1.2s0.5-1.2,1.2-1.2h1.2v-1.9c0-1.6,1.3-2.9,2.9-2.9
		h30.4c1.6,0,2.9,1.3,2.9,2.9v1.9v2.4v4.7l0,0v25.4l0,0v8.3v7.4h1.2c0.7,0,1.2,0.5,1.2,1.2C82,138.5,81.5,139,80.8,139z"/>
</g>
<path class="st6" d="M92.4,46.3c0,0.6-0.5,1.1-1.1,1.1c-15.5,0.2-21.2,9.7-22.9,16.3C75,56.1,85,56,91.3,56c0.3,0,0.6,0.1,0.8,0.3
	c0.2,0.2,0.3,0.5,0.3,0.8l0,5.8l13.5-11.2L92.3,40.5L92.4,46.3z"/>
<path class="st13" d="M91.9,37.4c-0.2-0.2-0.4-0.2-0.7-0.2c-0.2,0-0.3,0-0.5,0.1c-0.4,0.2-0.6,0.6-0.6,1l0,7
	c-10.4,0.4-16.2,5-19.3,8.8C67,58.8,65.7,64.3,65.7,68c0,0.5,0.3,0.9,0.8,1s1-0.1,1.2-0.5c5.5-9.7,15.8-10.2,22.5-10.3l0,7
	c0,0.4,0.2,0.8,0.6,1s0.8,0.1,1.1-0.1l16.3-13.5c0.2-0.2,0.4-0.5,0.4-0.8c0-0.3-0.1-0.6-0.4-0.8L91.9,37.4z M92.4,62.9l0-5.8
	c0-0.3-0.1-0.6-0.3-0.8c-0.2-0.2-0.5-0.3-0.8-0.3C85,56,75,56.1,68.4,63.7c1.7-6.6,7.4-16.1,22.9-16.3c0.6,0,1.1-0.5,1.1-1.1l0-5.8
	l13.6,11.1L92.4,62.9z"/>
</svg>
