<svg id="Calque_1" data-name="Calque 1" xmlns="http://www.w3.org/2000/svg" viewBox="0 0 27.84 26"><defs><style>.cls-1{fill:#2699fb;}</style></defs><title>emails</title><g id="message"><g id="Groupe_21" data-name="Groupe 21"><g id="Groupe_20" data-name="Groupe 20"><path id="Tracé_314" data-name="Tracé 314" class="cls-1" d="M27.81,9.83a.4.4,0,0,0,0-.15.7.7,0,0,0-.28-.4l-4-2.76v-3a.71.71,0,0,0-.71-.71H18.22L14.32.12a.74.74,0,0,0-.81,0L9.59,2.83H5a.72.72,0,0,0-.71.72V6.48l-4,2.77a.7.7,0,0,0-.3.58H0V25.29A.72.72,0,0,0,.74,26h0l26.39,0a.71.71,0,0,0,.71-.71ZM23.52,8.25,25.8,9.84l-2.28,1.58ZM13.91,1.58l1.81,1.25H12.09ZM5.73,4.26H22.09v8.15L16.6,16.23l-2.24-1.74h0a.69.69,0,0,0-.86,0l-2.26,1.75-5.5-3.8V4.26Zm-1.42,4v3.24L2,9.84Zm-2.89,3,8.63,6L1.44,23.84Zm1.4,13.38L13.92,16,25,24.54Zm15-7.43,8.6-6,0,12.67Z" transform="translate(-0.01 0)"/></g></g><g id="Groupe_23" data-name="Groupe 23"><g id="Groupe_22" data-name="Groupe 22"><path id="Tracé_315" data-name="Tracé 315" class="cls-1" d="M19.54,7.05H8.29a.83.83,0,1,0,0,1.65H19.53a.81.81,0,0,0,.83-.82.83.83,0,0,0-.82-.83Z" transform="translate(-0.01 0)"/></g></g><g id="Groupe_25" data-name="Groupe 25"><g id="Groupe_24" data-name="Groupe 24"><path id="Tracé_316" data-name="Tracé 316" class="cls-1" d="M19.54,10.72H8.29a.83.83,0,1,0,0,1.66H19.53a.83.83,0,0,0,0-1.66Z" transform="translate(-0.01 0)"/></g></g></g></svg>