<?xml version="1.0" encoding="utf-8"?>
<!-- Generator: Adobe Illustrator 22.1.0, SVG Export Plug-In . SVG Version: 6.00 Build 0)  -->
<svg version="1.1" id="Calque_1" xmlns="http://www.w3.org/2000/svg" xmlns:xlink="http://www.w3.org/1999/xlink" x="0px" y="0px"
	 viewBox="0 0 310.1 64.5" style="enable-background:new 0 0 310.1 64.5;" xml:space="preserve">
<style type="text/css">
	.st0{fill:#F9BB30;}
	.st1{fill:#FFFFFF;}
	.st2{fill:#D19620;}
	.st3{fill:#3A4237;}
	.st4{fill:#F9D22E;}
	.st5{fill:#907B1A;}
</style>
<g>
	<g>
		<g>
			<path class="st0" d="M37.9,62.3c0,0-14.6-8.3-17.4-20.9s4-26.5,17.5-26.2c13.5,0.3,18,18.4,18,25.9C56.2,48,49.8,56.8,37.9,62.3z
				"/>
		</g>
		<g>
			<path class="st1" d="M23.9,30.1c0,0-5.1,11.2,6.7,25.1l0.4-0.1L28.5,56l-8.9-12.3l1.6-16L23.9,30.1z"/>
		</g>
		<g>
			<path class="st2" d="M44.7,55.3c0,0,8.1-4.8,8.1-10.8c0-4.9-2.1-0.2-2.1-0.2s-2.1,7.5-6.2,10.2"/>
		</g>
		<g>
			<path class="st1" d="M21.1,21c0,0-14-7.2-18.5,1.6s9.7,19,16,19.5"/>
			<path class="st3" d="M18.5,43.7C13.6,43.4,5.1,38.2,1.7,32c-2-3.6-2.2-7.1-0.6-10.2c5.3-10.2,20.2-2.7,20.9-2.4l-1.6,3.1
				c-0.1-0.1-12.5-6.3-16.2,0.9c-1.1,2.1-0.9,4.4,0.5,6.9c3.1,5.4,10.5,9.8,14.1,10L18.5,43.7z"/>
		</g>
		<g>
			<path class="st1" d="M28.5,56c0,0-12.7,7.2-17,0.1c-4.1-6.8,6.7-13.3,6.7-13.3"/>
			<path class="st3" d="M23.8,59.9C19.3,61.4,13.1,62.1,10,57c-4.9-8.2,6.8-15.4,7.3-15.7l1.8,3c-0.1,0.1-9.3,5.7-6.2,11
				c3.3,5.5,14.5-0.6,14.6-0.7l1.7,3C29.1,57.7,26.8,58.9,23.8,59.9z"/>
		</g>
		<g>
			<path class="st1" d="M51.9,21.3c0,0,13.7-7.7,18.6,0.9s-9,19.4-15.3,20"/>
			<path class="st3" d="M57.5,43.5c-0.8,0.2-1.5,0.4-2.2,0.5L55,40.6c3.5-0.4,10.9-5,13.7-10.5c1.3-2.6,1.4-4.9,0.3-6.9
				c-1.6-2.9-4.7-3.8-9.3-2.9c-3.7,0.8-6.9,2.6-7,2.6l-1.7-3c0.1-0.1,3.7-2.1,8-3c7.7-1.6,11.3,1.6,13,4.5c1.7,3.1,1.7,6.6-0.2,10.2
				C68.9,37.1,62.4,42,57.5,43.5z"/>
		</g>
		<g>
			<path class="st1" d="M45.8,56.7c0,0,13,6.7,17-0.6c3.8-7-7.2-13.1-7.2-13.1"/>
			<path class="st3" d="M59.7,60.7c-6,1.9-14.2-2.3-14.7-2.5l1.6-3.1c0.1,0.1,11.6,5.7,14.7,0.1c3-5.4-6.5-10.7-6.6-10.7l1.7-3
				c0.5,0.3,12.5,7,7.9,15.4C63.2,58.9,61.6,60.1,59.7,60.7z"/>
		</g>
		<g>
			<path class="st3" d="M48.7,21.2c-0.2,1.1-1.2,1.9-2.3,1.7c-1.1-0.2-1.8-1.2-1.7-2.3l0,0c0-0.1,0-0.3,0-0.4
				c-1.6,0.7-2.4,2.7-1.6,4.3c0.7,1.6,2.6,2.4,4.3,1.7c1.2-0.5,1.9-1.7,1.9-3C49.4,22.5,49.2,21.8,48.7,21.2z"/>
		</g>
		<g>
			<path class="st3" d="M30.6,21.4c-0.2,1.1-1.2,1.9-2.3,1.7c-1.1-0.2-1.9-1.2-1.7-2.3c0-0.1,0-0.3,0-0.4c-1.6,0.8-2.3,2.7-1.6,4.3
				c0.8,1.6,2.7,2.4,4.3,1.6c1.2-0.5,1.9-1.7,1.9-3C31.2,22.7,31,22,30.6,21.4z"/>
		</g>
		<g>
			<path class="st3" d="M39.7,14.2c0-1.2,0.1-2.3,0.4-3.4c0.8-2.8,2.6-5.2,5.1-6.7c1.6-0.7,3.5-1.1,3.4-2.7C48.6,0.6,48,0,47.2,0
				c-0.1,0-0.1,0-0.2,0c-0.7,0-3.5,0.8-6.5,4.8c-1.9,2.7-2.8,5.9-2.6,9.2C38.6,13.8,39.2,13.9,39.7,14.2z"/>
		</g>
		<g>
			<path class="st3" d="M34.7,14.4c0,0,0.1,0,0.1,0c0.2-0.2,0.5-0.3,0.8-0.4c0.3-0.1,0.6-0.1,0.9-0.1c0-3.2-1-6.4-2.9-9
				c-3.2-3.9-6-4.7-6.6-4.7c-0.8-0.1-1.5,0.5-1.5,1.3c0,0,0,0.1,0,0.1c-0.1,1.6,1.9,1.9,3.5,2.6c2.5,1.4,4.4,3.8,5.3,6.6
				C34.5,12,34.7,13.2,34.7,14.4z"/>
		</g>
		<g>
			<path class="st2" d="M41.1,28.3c0,0,2.4,4.7,9.7,3.3c0,0,2.6,11-0.7,13.4c0,0,10.3-1.9,2.4-16.7C52.4,28.3,48.8,31.3,41.1,28.3z"
				/>
		</g>
		<g>
			<path class="st3" d="M37,64.5L36.3,64c-0.6-0.4-15.3-8.8-18.2-22c-1.7-7.8,0-16.1,4.5-21.6c3.7-4.5,8.8-6.8,14.7-6.7
				c5.9,0.1,11.4,3.5,15.4,9.4c4.1,6.2,6,14.3,4.2,18.8c-3.2,8.2-7.6,16.6-19,22.1L37,64.5z M32.1,17.9c-2.6,0.8-5,2.4-6.8,4.7
				c-3.9,4.7-5.3,11.9-3.8,18.7c2.2,10.1,12.8,17.4,15.7,19.3c9.7-5,13.7-12.4,16.5-19.8c1.2-3,0-9.9-3.8-15.7
				c-1.9-2.9-6.1-7.7-12.6-7.9C35.4,17.2,33.7,17.4,32.1,17.9z"/>
		</g>
		<g>
			<circle class="st1" cx="27.5" cy="21.5" r="7.7"/>
			<path class="st3" d="M30.4,30.5c-4.5,1.4-9.5-0.7-11.5-5.1c-1-2.3-1.1-4.9-0.2-7.2c0.9-2.4,2.7-4.2,5-5.2c2.3-1,4.9-1.1,7.2-0.2
				c2.4,0.9,4.2,2.7,5.2,5c1,2.3,1.1,4.9,0.2,7.2c-0.9,2.4-2.7,4.2-5,5.2C31,30.3,30.7,30.4,30.4,30.5z M25.7,15.8
				c-0.2,0.1-0.4,0.1-0.6,0.2c-1.5,0.6-2.6,1.8-3.1,3.3c-0.6,1.5-0.5,3.1,0.1,4.6c1.3,3,4.9,4.4,7.9,3c1.5-0.6,2.6-1.8,3.1-3.3
				c0.6-1.5,0.5-3.1-0.1-4.6l0,0c-0.6-1.5-1.8-2.6-3.3-3.1C28.4,15.5,27,15.4,25.7,15.8z"/>
		</g>
		<g>
			<path class="st3" d="M32.6,33.7c1,0.9,1.9,1.7,2.9,2.2c1,0.5,2,0.6,3,0.5c1.1-0.1,2.1-0.5,3.1-1c1-0.5,2-1.3,3-2.1
				c-0.3,1.3-1,2.5-2,3.5c-1,1-2.4,1.6-3.9,1.8c-0.7,0.1-1.5,0-2.3-0.2c-0.7-0.2-1.4-0.6-2-1.1C33.5,36.3,32.8,35.1,32.6,33.7z"/>
		</g>
		<g>
			<path class="st3" d="M36.2,41.1c0.4-0.2,0.8-0.3,1.2-0.4c0.4-0.1,0.8-0.1,1.2-0.2c0.4,0,0.8,0,1.2,0c0.4,0,0.8,0.1,1.2,0.3
				c-0.4,0.2-0.8,0.3-1.2,0.4c-0.4,0.1-0.8,0.1-1.2,0.2c-0.4,0-0.8,0-1.2,0C37,41.3,36.6,41.2,36.2,41.1z"/>
		</g>
		<g>
			<path class="st3" d="M30.2,21.6c-0.2,1-1.1,1.7-2.1,1.5c-1-0.2-1.7-1.1-1.5-2.1c0-0.1,0-0.2,0-0.3c-1.5,0.7-2.1,2.4-1.4,3.9
				c0.7,1.5,2.4,2.1,3.9,1.4c1-0.5,1.7-1.5,1.7-2.7C30.7,22.7,30.5,22.1,30.2,21.6z"/>
		</g>
		<g>
			<circle class="st1" cx="47.1" cy="21" r="7.7"/>
			<path class="st3" d="M50,30c-4.5,1.4-9.5-0.7-11.5-5.1c-1-2.3-1.1-4.9-0.2-7.2c0.9-2.4,2.7-4.2,5-5.2c2.3-1,4.9-1.1,7.2-0.2
				c2.4,0.9,4.2,2.7,5.2,5c1,2.3,1.1,4.9,0.2,7.2c-0.9,2.4-2.7,4.2-5,5.2C50.7,29.8,50.3,29.9,50,30z M45.3,15.4
				c-0.2,0.1-0.4,0.1-0.6,0.2c-1.5,0.6-2.6,1.8-3.1,3.3C41,20.4,41,22,41.7,23.5c1.3,3,4.9,4.4,7.9,3c1.5-0.6,2.6-1.8,3.1-3.3
				c0.6-1.5,0.5-3.1-0.1-4.6l0,0c-0.6-1.5-1.8-2.6-3.3-3.1C48,15,46.6,14.9,45.3,15.4z"/>
		</g>
		<g>
			<path class="st3" d="M48.9,20.6c-0.2,1-1.1,1.7-2.1,1.5c-1-0.2-1.7-1.1-1.5-2.1c0-0.1,0-0.2,0-0.3c-1.5,0.7-2.1,2.4-1.4,3.9
				c0.7,1.5,2.4,2.1,3.9,1.4c1-0.5,1.7-1.5,1.7-2.7C49.5,21.7,49.3,21.1,48.9,20.6z"/>
		</g>
		<g>
			<path class="st3" d="M53.5,44.5c-3.8,1.2-10.5,3-16.3,3.2C28.3,48,19.3,43.4,19,43.2l1.6-3.1c0.1,0,8.5,4.3,16.5,4.1
				c8.1-0.2,18.3-4,18.4-4.1l1.2,3.2C56.5,43.4,55.3,43.9,53.5,44.5z"/>
		</g>
		<g>
			<path class="st4" d="M47.7,54.7c0,0-4.8,1.7-9.6,2c-4.8,0.3-9.6-1.2-9.6-1.2"/>
			<path class="st3" d="M47.7,56.5c-1.4,0.5-5.4,1.6-9.5,1.9c-5.1,0.3-10-1.2-10.2-1.3l1.1-3.3c0,0,4.6,1.4,9,1.2
				c4.5-0.3,9.1-1.9,9.1-1.9l1.1,3.3C48.2,56.4,48,56.4,47.7,56.5z"/>
		</g>
		<g>
			<path class="st5" d="M44,54.6"/>
		</g>
		<g>
			<path class="st5" d="M46.1,55.3"/>
		</g>
	</g>
	<g id="text">
		<path class="st3" d="M98,57.9c-5.5,0-9-1.4-12.5-4.8l2.7-2.7c3,3,5.8,4,9.9,4c5.3,0,8.6-2.5,8.6-6.7c0-1.9-0.6-3.5-1.7-4.5
			s-2.1-1.3-4.7-1.7l-4.2-0.7c-2.9-0.5-5.1-1.4-6.7-2.8c-1.8-1.6-2.8-3.9-2.8-6.8c0-6.2,4.4-10.3,11.6-10.3c4.6,0,7.7,1.2,10.8,4
			l-2.5,2.5c-2.2-2-4.6-3.1-8.5-3.1c-4.9,0-7.7,2.7-7.7,6.7c0,1.8,0.5,3.2,1.6,4.2s3,1.7,4.9,2l4,0.6c3.4,0.5,5.1,1.2,6.6,2.6
			c2,1.7,3.1,4.2,3.1,7.2C110.5,54,105.5,57.9,98,57.9z"/>
		<path class="st3" d="M129.8,24.7v32.9h-3.9V24.7h-10.5v-3.5h24.9v3.5H129.8z"/>
		<path class="st3" d="M147.7,57.6V21.2h3.9v36.4L147.7,57.6z"/>
		<path class="st3" d="M189.8,57.6V30l-10,21.9h-3.3L166.4,30v27.6h-3.9V21.2h3.9L178.2,47l11.5-25.8h3.9v36.4L189.8,57.6z"/>
		<path class="st0" d="M219,57.6h-15.2V21.2h14.6c7.1,0,11.2,4,11.2,10.2c0,4-2.7,6.6-4.5,7.5c2.2,1,5,3.3,5,8.2
			C230.1,53.9,225.4,57.6,219,57.6z M217.8,27.6h-6.9V36h6.9c3,0,4.7-1.7,4.7-4.2C222.5,29.2,220.8,27.6,217.8,27.6z M218.2,42.3
			h-7.4v8.9h7.4c3.2,0,4.8-2,4.8-4.5C223,44.3,221.5,42.3,218.2,42.3z"/>
		<path class="st0" d="M237.9,57.6V21.2h7.1v36.4L237.9,57.6z"/>
		<path class="st0" d="M251.7,57.6v-5.7l15.5-24.3h-14.9v-6.3h23.2v5.6l-15.6,24.4h15.6v6.3H251.7z"/>
		<path class="st0" d="M281.7,32.8V21.2h6.9v6.3L281.7,32.8z"/>
	</g>
	<g id="R">
		<path class="st0" d="M303.9,20.1c-3.4,0-6.2-2.8-6.2-6.2s2.8-6.2,6.2-6.2c3.4,0,6.2,2.8,6.2,6.2S307.4,20.1,303.9,20.1z
			 M303.9,8.5c-2.9,0-5.2,2.4-5.2,5.3s2.3,5.3,5.2,5.3c2.9,0,5.3-2.4,5.3-5.3S306.8,8.5,303.9,8.5z M305.4,17.3l-1.6-2.8h-1v2.8
			h-0.9v-6.8h2.3c1.2,0,2.2,0.9,2.2,2c0,1-0.6,1.6-1.5,1.9l1.6,2.9H305.4z M304.1,11.3h-1.3v2.4h1.3c0.8,0,1.3-0.5,1.3-1.2
			C305.4,11.8,304.9,11.3,304.1,11.3z"/>
	</g>
</g>
</svg>
