<?xml version="1.0" encoding="utf-8"?>
<!-- Generator: Adobe Illustrator 23.0.2, SVG Export Plug-In . SVG Version: 6.00 Build 0)  -->
<svg version="1.1" id="Capa_1" xmlns="http://www.w3.org/2000/svg" xmlns:xlink="http://www.w3.org/1999/xlink" x="0px" y="0px"
	 viewBox="0 0 512 512" style="enable-background:new 0 0 512 512;" xml:space="preserve">
<style type="text/css">
	.st0{fill:#CE0505;}
</style>
<g>
	<g>
		<path class="st0" d="M504,242l-121.1-89.3c-9.8-7.2-23.7-0.2-23.7,12v44.7h-29.8V44.7c0-24.6-20-44.7-44.7-44.7H46.6
			C22.1,0,2,20,2,44.7C2,58.4,2,369,2,387.9c0,15,7.4,28.9,19.9,37.2l119.1,79.4c29.6,19.8,69.4-1.6,69.4-37.2v-18.8h74.4
			c24.6,0,44.7-20,44.7-44.7V298.7h29.8v44.7c0,12.3,14,19.2,23.7,12L504,266C512,260,512,248,504,242z M157.5,479.7L38.4,400.3
			c-4.2-2.8-6.6-7.4-6.6-12.4c0-4.2,0-287.5,0-343.3c0-1.8,0.3-3.6,1-5.2L169.9,108c4.9,2.4,10.7,6.9,10.7,14.6v344.7h0
			C180.6,479.2,167.4,486.3,157.5,479.7z M299.7,403.8c0,8.2-6.7,14.9-14.9,14.9h-74.4V122.6c0-17.5-9.9-32.5-27.2-41.2L79.9,29.8
			h204.9c8.2,0,14.9,6.7,14.9,14.9v164.7H255c-8.2,0-14.9,6.7-14.9,14.9v59.5c0,8.2,6.7,14.9,14.9,14.9h44.7V403.8z M389,313.8
			v-30.1c0-8.2-6.7-14.9-14.9-14.9H269.9v-29.8h104.2c8.2,0,14.9-6.7,14.9-14.9v-30.1l81.1,59.8L389,313.8z"/>
	</g>
</g>
<g>
	<g>
		<path class="st0" d="M135.9,209.4c-8.2,0-14.9,6.7-14.9,14.9v59.5c0,8.2,6.7,14.9,14.9,14.9s14.9-6.7,14.9-14.9v-59.5
			C150.8,216,144.2,209.4,135.9,209.4z"/>
	</g>
</g>
</svg>
