<svg id="Calque_1" data-name="Calque 1" xmlns="http://www.w3.org/2000/svg" viewBox="0 0 153.68 112.47"><defs><style>.cls-1{fill:#0686d8;}.cls-2,.cls-4{fill:#fff;}.cls-2{stroke:#fff;stroke-miterlimit:10;stroke-width:2px;}.cls-3{fill:#f9bb30;}.cls-5{fill:#d19620;}.cls-6{fill:#3a4237;}.cls-7{fill:#f9d22e;}.cls-8{fill:#907b1a;}</style></defs><title>picto_aide</title><path class="cls-1" d="M128.34,0A2.94,2.94,0,0,0,127,.35L104.34,13.43A2.69,2.69,0,0,0,103,15.76V41.94a2.69,2.69,0,0,0,1.34,2.33L127,57.35a2.85,2.85,0,0,0,1.34.35,2.94,2.94,0,0,0,1.34-.35l22.66-13.08a2.69,2.69,0,0,0,1.34-2.33V15.76a2.69,2.69,0,0,0-1.34-2.33L129.68.35A2.94,2.94,0,0,0,128.34,0Z"/><polygon class="cls-1" points="103 41.57 96.04 49.25 115.01 48.61 103 41.57"/><rect class="cls-2" x="126.23" y="43.69" width="5.21" height="5.21" rx="2.22" ry="2.22"/><path class="cls-2" d="M137.48,13.89a12.71,12.71,0,0,0-8.6-2.89,12.14,12.14,0,0,0-8.29,2.81,10.87,10.87,0,0,0-3.28,5.37A2.24,2.24,0,0,0,119.2,22l.34,0a2.21,2.21,0,0,0,2.37-1.57q1.65-5.73,7-5.74a7.15,7.15,0,0,1,5.13,2,6.3,6.3,0,0,1,2.11,4.69,5.64,5.64,0,0,1-.62,2.56,13.83,13.83,0,0,1-3.11,3.47c-1.31,1.13-2.32,2.08-3,2.84a10.78,10.78,0,0,0-1.75,2.44,8.61,8.61,0,0,0-.89,2.66,18.86,18.86,0,0,0-.18,2,2.22,2.22,0,0,0,4.44.28,9.1,9.1,0,0,1,.69-3.11,16.37,16.37,0,0,1,3.52-3.93,19.31,19.31,0,0,0,4.64-5.28,9.82,9.82,0,0,0,1-4.25A9.13,9.13,0,0,0,137.48,13.89Z"/><path class="cls-3" d="M31.42,97.19S19.3,75.36,25.54,57.11,51.22,26.49,68.22,37.39s8.59,37.41,2.81,47C65.73,93.13,50.8,99.39,31.42,97.19Z"/><path class="cls-4" d="M38.56,45.35S23.43,55.62,27.5,82.54l.63.15-3.88-.79L22.51,59.39,37,40.22Z"/><path class="cls-5" d="M45.46,93.58s14,.15,18.73-7.51c3.87-6.27-2.53-1.85-2.53-1.85s-8.57,7.88-15.8,8.13"/><path class="cls-4" d="M42.14,31.49S30,11.45,17.29,19.14s-2.35,31.79,5.3,37.25"/><path class="cls-6" d="M21.09,58.49C15.07,54.2,8.38,41,8.77,30.4,9,24.31,11.47,19.66,16,16.94,30.65,8,43.8,29.24,44.35,30.15l-4.41,2.69c-.11-.18-11-17.75-21.31-11.49-3,1.8-4.54,4.91-4.7,9.24-.34,9.3,5.83,20.61,10.16,23.69Z"/><path class="cls-4" d="M24.25,81.9S2.47,81.13,2.58,68.77c.11-11.84,19-11.74,19-11.74"/><path class="cls-6" d="M15.31,83.19C8.37,81.5-.08,77.62,0,68.75.13,54.49,20.68,54.44,21.55,54.44l0,5.17c-.16,0-16.27.06-16.35,9.18-.09,9.58,19,10.52,19.17,10.53l-.18,5.16A48.56,48.56,0,0,1,15.31,83.19Z"/><path class="cls-4" d="M81,55.86s23.45.8,22.94,15.61S77.38,89.09,68.87,85.1"/><path class="cls-6" d="M70.89,88.5a17.24,17.24,0,0,1-3.12-1.06L70,82.76C74.79,85,87.66,84.86,95.6,80c3.7-2.26,5.63-5.16,5.75-8.62.16-4.89-3-8.53-9.56-10.84a41.58,41.58,0,0,0-10.89-2.1l.17-5.17a46.52,46.52,0,0,1,12.44,2.4c11.06,3.91,13.18,10.8,13,15.88-.18,5.24-3,9.68-8.21,12.86C90.47,89.2,78.35,90.32,70.89,88.5Z"/><path class="cls-4" d="M45.82,96.16s11.34,18.6,22.06,12.45c10.27-5.9,1-22.28,1-22.28"/><path class="cls-6" d="M60.39,112.11c-9.11-2.22-16.38-14-16.78-14.61L48,94.81c.11.16,10.3,16.31,18.58,11.56,7.94-4.56.06-18.62,0-18.76l4.49-2.56c.43.76,10.46,18.7-1.9,25.8A11.59,11.59,0,0,1,60.39,112.11Z"/><path class="cls-6" d="M77.07,53.3a3,3,0,0,1-4.22.36,3,3,0,0,1-.34-4.25h0a3.83,3.83,0,0,1,.33-.46,4.87,4.87,0,1,0,3.5,7.35A4.81,4.81,0,0,0,77.07,53.3Z"/><path class="cls-6" d="M53.76,39.45a3,3,0,0,1-4.22.36,3,3,0,0,1-.35-4.25,3.22,3.22,0,0,1,.34-.46,4.88,4.88,0,1,0,4.23,4.35Z"/><path class="cls-6" d="M71.06,37.33a19.31,19.31,0,0,1,3.15-4.09,16.62,16.62,0,0,1,11.68-4.53c2.54.28,5.33,1.3,6.45-.8a2.1,2.1,0,0,0-.73-2.86l-.21-.11c-.84-.5-5.1-1.62-12,1.06A21.65,21.65,0,0,0,69,35.67,3,3,0,0,1,71.06,37.33Z"/><path class="cls-6" d="M64.51,33.68l.17.06a3.24,3.24,0,0,1,1.3.07,3.32,3.32,0,0,1,1.27.59,21.89,21.89,0,0,0,3.28-13.66c-1-7.37-4-10.57-4.8-11.13A2.08,2.08,0,0,0,62.8,10a1.67,1.67,0,0,0-.12.16c-1.29,2,.94,4,2.4,6.08a16.84,16.84,0,0,1,1.59,12.51A20.35,20.35,0,0,1,64.51,33.68Z"/><path class="cls-5" d="M61.81,56.34S61.23,64.17,71.59,68c0,0-5.23,16-11.34,16.51,0,0,14.6,5.55,16-19.36C76.27,65.18,69.39,66.16,61.81,56.34Z"/><path class="cls-6" d="M28.56,99.32l-.65-1.19c-.52-.93-12.61-23-6.06-42.17,3.86-11.28,12.51-20.47,22.57-24a26.7,26.7,0,0,1,23.94,2.93c7.45,4.77,11.8,13.28,12.27,24,.48,11.08-3.51,22.8-9.28,27.25-10.43,8-22.66,15.22-41.44,13.34ZM58.49,36.17a21.6,21.6,0,0,0-12.37.69c-8.6,3-16,11-19.39,20.78-5,14.63,2.77,32.12,5.08,36.79C48,95.65,58.88,89.2,68.19,82c3.85-3,7.73-12.58,7.28-22.94-.23-5.18-1.82-14.64-9.9-19.82A23.71,23.71,0,0,0,58.49,36.17Z"/><circle class="cls-4" cx="49.81" cy="37.19" r="11.49"/><path class="cls-6" d="M46.46,50.86a14,14,0,1,1,1.54.29C47.48,51.08,47,51,46.46,50.86Zm5.47-22.32c-.32-.08-.65-.14-1-.19a8.91,8.91,0,1,0,7.69,10h0a8.9,8.9,0,0,0-6.71-9.79Z"/><path class="cls-6" d="M46.79,56.67a16.87,16.87,0,0,0,2.06,5,8.1,8.1,0,0,0,3.48,3,12.81,12.81,0,0,0,4.75,1.15,28.14,28.14,0,0,0,5.53-.34,9.78,9.78,0,0,1-5.32,2.88A10.19,10.19,0,0,1,51,67.63a8.71,8.71,0,0,1-2.71-2,8.26,8.26,0,0,1-1.68-2.88A8.52,8.52,0,0,1,46.79,56.67Z"/><path class="cls-6" d="M45.64,68.76a7.62,7.62,0,0,1,1.83.39,12.24,12.24,0,0,1,1.66.72,11.17,11.17,0,0,1,1.53,1A7.39,7.39,0,0,1,52,72.11a7.26,7.26,0,0,1-1.83-.38A12.11,12.11,0,0,1,48.53,71a11.55,11.55,0,0,1-1.53-1A7.18,7.18,0,0,1,45.64,68.76Z"/><path class="cls-6" d="M53.15,39.28a2.68,2.68,0,0,1-3.8.33A2.73,2.73,0,0,1,49,35.78a4,4,0,0,1,.31-.41A4.38,4.38,0,1,0,52.57,42,4.45,4.45,0,0,0,53.15,39.28Z"/><circle class="cls-4" cx="75.18" cy="51.82" r="11.49"/><path class="cls-6" d="M71.84,65.5A14.11,14.11,0,0,1,61.22,50,14.08,14.08,0,1,1,73.38,65.78,15.49,15.49,0,0,1,71.84,65.5Zm5.47-22.33a7.87,7.87,0,0,0-1-.18A8.91,8.91,0,1,0,84,53h0a8.9,8.9,0,0,0-6.71-9.79Z"/><path class="cls-6" d="M77.82,52.61a2.68,2.68,0,0,1-3.8.33,2.72,2.72,0,0,1-.31-3.83,3.08,3.08,0,0,1,.3-.41,4.39,4.39,0,1,0,3.81,3.91Z"/><path class="cls-6" d="M65.07,86.58C59.26,85.17,49.39,82.34,41.76,78c-11.5-6.55-19.35-19.32-19.68-19.86l4.42-2.68c.07.12,7.5,12.17,17.82,18,10.53,6,26.41,9,26.57,9.08l-1,5.08C69.71,87.62,67.86,87.26,65.07,86.58Z"/><path class="cls-7" d="M49.69,95.13a62.11,62.11,0,0,1-13.77-4.94,44.36,44.36,0,0,1-11.28-9"/><path class="cls-6" d="M48.27,97.46a63.68,63.68,0,0,1-13.55-5,46.49,46.49,0,0,1-12-9.64l3.91-3.37a42.07,42.07,0,0,0,10.52,8.44,59.89,59.89,0,0,0,13.11,4.7l-1.09,5Z"/><path class="cls-8" d="M45.1,92.15"/><path class="cls-8" d="M47.15,94.64"/></svg>