<svg id="Calque_1" data-name="Calque 1" xmlns="http://www.w3.org/2000/svg" viewBox="0 0 95.13 126.87"><defs><style>.cls-1{fill:#0686d8;}</style></defs><title>picto_fichiersaide</title><path class="cls-1" d="M95.13,25.68a3,3,0,0,0-.87-2.07L71.53.87h0A2.94,2.94,0,0,0,69.42,0H6.25A6.27,6.27,0,0,0,0,6.25V120.62a6.26,6.26,0,0,0,6.25,6.25H88.88a6.25,6.25,0,0,0,6.25-6.25V25.68ZM72.4,10.14,85,22.74H72.71a.31.31,0,0,1-.31-.31V10.14ZM89.19,120.62a.31.31,0,0,1-.31.31H6.25a.31.31,0,0,1-.31-.31V6.25a.31.31,0,0,1,.31-.31h60.2V22.43a6.27,6.27,0,0,0,6.26,6.25H89.19v91.94Z"/><path class="cls-1" d="M73.86,40.64H21.28a3,3,0,0,0,0,5.94H73.86a3,3,0,0,0,0-5.94Z"/><path class="cls-1" d="M73.86,58.57H21.28a3,3,0,0,0,0,5.94H73.86a3,3,0,0,0,0-5.94Z"/><path class="cls-1" d="M73.86,76.49H21.28a3,3,0,1,0,0,5.94H73.86a3,3,0,0,0,0-5.94Z"/><path class="cls-1" d="M47.57,94.42H21.28a3,3,0,0,0,0,5.94H47.57a3,3,0,1,0,0-5.94Z"/></svg>