<svg id="Calque_1" data-name="Calque 1" xmlns="http://www.w3.org/2000/svg" viewBox="0 0 138.96 126.57"><defs><style>.cls-1{fill:#0686d8;}</style></defs><title>picto_faq</title><path class="cls-1" d="M106.32,29.84c0,4.21-3.07,6.77-5.31,8.65-.84.71-2.42,2-2.42,2.49a3.38,3.38,0,0,1-3.42,3.42h0A3.41,3.41,0,0,1,91.7,41c0-3.73,2.69-6,4.88-7.8,1.72-1.45,2.85-2.46,2.85-3.39a3.41,3.41,0,0,0-6.82,0,3.45,3.45,0,1,1-6.89,0,10.3,10.3,0,0,1,20.6,0ZM95.24,47.58A3.39,3.39,0,0,0,91.87,51v0a3.37,3.37,0,0,0,3.37,3.43,3.46,3.46,0,0,0,0-6.91Zm-69.44,24a3.45,3.45,0,1,0,0,6.89h.28a3.45,3.45,0,1,0,0-6.89Zm12,0a3.45,3.45,0,0,0,0,6.89h.29a3.45,3.45,0,0,0,0-6.89ZM139,16.56V55.33A16.57,16.57,0,0,1,122.41,72H77.73l-2.19,0c-.63,0-1.34,0-1.62,0a21.86,21.86,0,0,0-1.67,1.47l-.91.82L58.7,85.77a3.52,3.52,0,0,1-5.87-2.54V46.7H16.74a9.87,9.87,0,0,0-9.85,9.8V95.27a9.72,9.72,0,0,0,9.85,9.62h49.9a3.45,3.45,0,0,1,2.3,1l10.3,9.5V82.61a3.45,3.45,0,0,1,6.89,0v40.56a3.39,3.39,0,0,1-2,3.13,3.24,3.24,0,0,1-1.36.27,3.49,3.49,0,0,1-2.33-.93l-15.1-13.86H16.74A16.62,16.62,0,0,1,0,95.27V56.5A16.77,16.77,0,0,1,16.74,39.81H52.83V16.56A16.71,16.71,0,0,1,69.62,0h52.79A16.5,16.5,0,0,1,139,16.56Zm-6.89,0a9.6,9.6,0,0,0-9.66-9.67H69.62a9.81,9.81,0,0,0-9.9,9.67V75.42l6.92-6.26c.32-.29.68-.56,1-.8,3.16-2.92,4-3.38,8.09-3.3l2,0h44.68a9.66,9.66,0,0,0,9.66-9.74V16.56Z"/></svg>