<svg id="sms" xmlns="http://www.w3.org/2000/svg" viewBox="0 0 26 27"><defs><style>.cls-1{fill:#2699fb;}</style></defs><title>sms</title><g id="Groupe_27" data-name="Groupe 27"><g id="Groupe_26" data-name="Groupe 26"><path id="Tracé_317" data-name="Tracé 317" class="cls-1" d="M23.72,6.43H16.86V2.37A2.34,2.34,0,0,0,14.57,0H2.29A2.34,2.34,0,0,0,0,2.37V24.62A2.34,2.34,0,0,0,2.29,27H14.57a2.34,2.34,0,0,0,2.29-2.37V20.21l2.6-2.7h4.25A2.34,2.34,0,0,0,26,15.13V8.81A2.34,2.34,0,0,0,23.72,6.43ZM1.52,2.37a.79.79,0,0,1,.77-.79H14.57a.79.79,0,0,1,.77.79v.79H1.52ZM15.34,24.62a.8.8,0,0,1-.77.8H2.29a.8.8,0,0,1-.77-.8V22.25H15.34Zm0-3.95H1.52V4.74H15.34V6.43h-.77a2.34,2.34,0,0,0-2.28,2.38v6.32a2.34,2.34,0,0,0,2.28,2.38h.77Zm9.14-5.54a.78.78,0,0,1-.76.79H19.15a.73.73,0,0,0-.54.24L16.86,18V16.72h0a.78.78,0,0,0-.76-.8H14.57a.77.77,0,0,1-.76-.79V8.81a.79.79,0,0,1,.76-.8h9.15a.79.79,0,0,1,.76.8Z" transform="translate(0)"/></g></g><g id="Groupe_29" data-name="Groupe 29"><g id="Groupe_28" data-name="Groupe 28"><path id="Tracé_318" data-name="Tracé 318" class="cls-1" d="M21.64,9.54h-7a.87.87,0,0,0,0,1.74h7a.87.87,0,0,0,.84-.9A.86.86,0,0,0,21.64,9.54Z" transform="translate(0)"/></g></g><g id="Groupe_31" data-name="Groupe 31"><g id="Groupe_30" data-name="Groupe 30"><path id="Tracé_319" data-name="Tracé 319" class="cls-1" d="M19.22,12.68H15.74a.87.87,0,0,0,0,1.74h3.48a.87.87,0,0,0,0-1.74Z" transform="translate(0)"/></g></g></svg>