<svg id="Calque_1" data-name="Calque 1" xmlns="http://www.w3.org/2000/svg" viewBox="0 0 31.71 31.7"><defs><style>.cls-1{fill:#2699fb;stroke:#2699fb;stroke-width:0.5px;}</style></defs><title>stimbiz store</title><g id="save-money"><g id="Groupe_2" data-name="Groupe 2"><g id="Groupe_1" data-name="Groupe 1"><path id="Tracé_304" data-name="Tracé 304" class="cls-1" d="M29.89,16.35l-1.41-.18a9.44,9.44,0,0,0-1.82-2.77l1-4.27a.6.6,0,0,0-.11-.5.64.64,0,0,0-.48-.22H27A4.22,4.22,0,0,0,23.07,11a10.18,10.18,0,0,0-1.33-.4A.6.6,0,0,0,21,11a.58.58,0,0,0,.44.71h0a8.55,8.55,0,0,1,4,2.17.67.67,0,0,0,.14.15,8.17,8.17,0,0,1,1.84,2.86.59.59,0,0,0,.5.38l1.77.22a.55.55,0,0,1,.49.53v3a.55.55,0,0,1-.49.54l-1.64.2a.58.58,0,0,0-.51.41A8.24,8.24,0,0,1,24.91,26a.57.57,0,0,0-.23.45v3.26a.54.54,0,0,1-.54.53H20.6a.54.54,0,0,1-.55-.53V28.5a.6.6,0,0,0-.61-.59H14.32a.59.59,0,0,0-.6.59v1.24a.54.54,0,0,1-.55.53H9.63a.54.54,0,0,1-.54-.53v-2.3a.62.62,0,0,0-.32-.52,8.15,8.15,0,0,1-4.44-7.2,8.34,8.34,0,0,1,8.47-8.19h.76a.6.6,0,0,0,.62-.57.59.59,0,0,0-.57-.61H12.8a9.64,9.64,0,0,0-9.39,7.08H3a1.45,1.45,0,0,1-.11-2.89H3A.59.59,0,0,0,3.57,14,.58.58,0,0,0,3,13.36H3a2.63,2.63,0,0,0-.2,5.25h.42a10.34,10.34,0,0,0-.07,1.11,9.33,9.33,0,0,0,4.75,8.07v1.95a1.74,1.74,0,0,0,1.77,1.71h3.54a1.73,1.73,0,0,0,1.76-1.71v-.65h3.9v.65a1.74,1.74,0,0,0,1.77,1.71h3.53a1.74,1.74,0,0,0,1.77-1.71v-3a9.27,9.27,0,0,0,2.72-3.87l1.27-.15A1.76,1.76,0,0,0,31.45,21v-3A1.74,1.74,0,0,0,29.89,16.35Zm-4.25-3.89a9.87,9.87,0,0,0-1.46-1,3,3,0,0,1,2.14-1.85Z" transform="translate(0.02 0)"/></g></g><g id="Groupe_4" data-name="Groupe 4"><g id="Groupe_3" data-name="Groupe 3"><path id="Tracé_305" data-name="Tracé 305" class="cls-1" d="M24.51,15.68a.67.67,0,1,0,0,.95.63.63,0,0,0,.19-.48A.65.65,0,0,0,24.51,15.68Z" transform="translate(0.02 0)"/></g></g><g id="Groupe_6" data-name="Groupe 6"><g id="Groupe_5" data-name="Groupe 5"><path id="Tracé_306" data-name="Tracé 306" class="cls-1" d="M18.11,4.18a.68.68,0,0,0-.68.67h0V7.52a.69.69,0,0,0,.68.68.68.68,0,0,0,.67-.68h0V4.85a.67.67,0,0,0-.67-.67Z" transform="translate(0.02 0)"/></g></g><g id="Groupe_8" data-name="Groupe 8"><g id="Groupe_7" data-name="Groupe 7"><path id="Tracé_307" data-name="Tracé 307" class="cls-1" d="M18.58,1.93a.68.68,0,1,0,.2.48A.67.67,0,0,0,18.58,1.93Z" transform="translate(0.02 0)"/></g></g><g id="Groupe_10" data-name="Groupe 10"><g id="Groupe_9" data-name="Groupe 9"><path id="Tracé_308" data-name="Tracé 308" class="cls-1" d="M13.18.25a.67.67,0,0,0-.67.67h0V2.07a.67.67,0,0,0,1.34,0V.92a.67.67,0,0,0-.67-.67Z" transform="translate(0.02 0)"/></g></g><g id="Groupe_12" data-name="Groupe 12"><g id="Groupe_11" data-name="Groupe 11"><path id="Tracé_309" data-name="Tracé 309" class="cls-1" d="M7.3,19.3a.68.68,0,0,0-.68-.67A.67.67,0,0,0,6,19.3v0a.67.67,0,0,0,.67.67h0a.68.68,0,0,0,.67-.68h0Z" transform="translate(0.02 0)"/></g></g><g id="Groupe_14" data-name="Groupe 14"><g id="Groupe_13" data-name="Groupe 13"><path id="Tracé_310" data-name="Tracé 310" class="cls-1" d="M10.17,24.1A6.25,6.25,0,0,1,7.6,21a.68.68,0,0,0-.87-.39.67.67,0,0,0-.39.87h0a7.57,7.57,0,0,0,3.13,3.75.67.67,0,0,0,.7-1.15Z" transform="translate(0.02 0)"/></g></g><g id="Groupe_16" data-name="Groupe 16"><g id="Groupe_15" data-name="Groupe 15"><path id="Tracé_311" data-name="Tracé 311" class="cls-1" d="M13.22,3.48a2.83,2.83,0,1,0,2.83,2.83A2.83,2.83,0,0,0,13.22,3.48Zm0,4.31A1.48,1.48,0,1,1,14.7,6.31,1.48,1.48,0,0,1,13.22,7.79Z" transform="translate(0.02 0)"/></g></g><g id="Groupe_18" data-name="Groupe 18"><g id="Groupe_17" data-name="Groupe 17"><path id="Tracé_312" data-name="Tracé 312" class="cls-1" d="M21.21,13.39h-.6a2.83,2.83,0,1,0-4.82,0H12.46a.68.68,0,0,0,0,1.35h8.75a.68.68,0,1,0,0-1.35Zm-3,0a1.48,1.48,0,1,1,1.48-1.48,1.48,1.48,0,0,1-1.48,1.48Z" transform="translate(0.02 0)"/></g></g></g></svg>